<?xml version="1.0" encoding="utf-8"?>
<!-- Generator: Adobe Illustrator 22.1.0, SVG Export Plug-In . SVG Version: 6.00 Build 0)  -->
<svg version="1.1" id="Layer_1" xmlns="http://www.w3.org/2000/svg" xmlns:xlink="http://www.w3.org/1999/xlink" x="0px" y="0px"
	 viewBox="0 0 57.2 63.3" style="enable-background:new 0 0 57.2 63.3;" xml:space="preserve">
<style type="text/css">
	.st0{fill:#FC8300;}
</style>
<g>
	<path class="st0" d="M53,49"/>
	<g>
		<path class="st0" d="M53,53.2c-1.1,0-2.2-0.4-2.9-1.2c-0.8-0.8-1.2-1.9-1.2-2.9c0-1.1,0.4-2.2,1.2-2.9c1-1,2.4-1.4,3.8-1.2
			c0.3,0.1,0.5,0.1,0.8,0.2c0.3,0.1,0.5,0.2,0.7,0.4c0.2,0.2,0.4,0.3,0.6,0.5c0.8,0.8,1.2,1.8,1.2,2.9c0,1.1-0.4,2.2-1.2,2.9
			C55.2,52.7,54.1,53.2,53,53.2z"/>
	</g>
	<g>
		<path class="st0" d="M57.2,16.4c0,0.4,0,0.8-0.1,1.2c0,0.3-0.1,0.5-0.2,0.9c0,0.2-0.1,0.4-0.1,0.5c-0.1,0.3-0.2,0.5-0.3,0.8
			c-0.1,0.3-0.2,0.6-0.4,0.9c-0.1,0.1-0.1,0.2-0.2,0.3c-0.4,0.6-0.7,1.2-1.2,1.7c-0.2,0.3-0.5,0.6-0.8,0.8c-0.3,0.3-0.6,0.5-0.9,0.7
			c-0.2,0.1-0.4,0.3-0.6,0.3c-0.4,0.1-0.7,0.4-1.1,0.6c-0.4,0.2-0.9,0.4-1.3,0.5c-3.5,1-6.6-0.4-9.7-1.8c-3.3-1.5-6.1-2.2-8.4-2.2
			c-0.9,0-1.8,0.2-2.3,0.5c-0.6,0.3-0.9,0.9-0.9,1.6c0,0.7,0.5,1.4,1.4,1.8c0.9,0.5,2.4,1,4.5,1.6c2.4,0.7,4.5,1.4,6.1,2.1
			c1.7,0.7,3,1.8,4.3,3.2c1.2,1.4,1.8,3.3,1.8,5.6c0,3.5-1.3,6.2-4,8.2c-2.7,2-6.2,2.9-10.6,2.9c-2.9,0-5.7-0.4-8.4-1.3
			c-1.4-0.4-2.6-0.9-3.8-1.6c-2-1-2.6-3.5-1.7-5.4c0.7-1.5,2.2-2.3,3.7-2.3c0.6,0,1.3,0.1,1.9,0.4c0.8,0.4,1.6,0.7,2.5,1
			c2.1,0.7,4.2,1.1,6.1,1.1c1.1,0,2-0.2,2.6-0.5c0.6-0.4,1-0.9,1-1.6c0-0.8-0.5-1.5-1.4-2c-1-0.5-2.5-1-4.5-1.5
			c-2.4-0.7-4.4-1.4-6-2.1C22.5,33,21.2,32,20,30.6c-1.2-1.4-1.8-3.2-1.8-5.5c0-3.5,1.3-6.2,4-8.2c2.6-2,6-3,10.2-3
			c2.5,0,5,0.3,7.4,1c2.3,0.6,4.3,1.7,6.4,2.6c0.3,0.2,0.7,0.3,1.1,0.3c0.4,0,0.9-0.2,1.2-0.5c0.3-0.3,0.4-0.8,0.3-1.2
			c-0.2-0.9-1-1.4-1.6-1.9c-0.4-0.4-0.9-0.7-1.3-1.1c-0.4-0.3-0.9-0.7-1.4-1c-0.5-0.3-0.9-0.6-1.5-0.9c-0.5-0.3-1-0.5-1.6-0.8
			c-0.5-0.2-1-0.5-1.6-0.7c-0.5-0.2-1.1-0.4-1.7-0.5c-0.5-0.2-1.1-0.3-1.7-0.4c-0.6-0.1-1.2-0.2-1.8-0.3c-0.6-0.1-1.2-0.1-1.8-0.2
			c-0.4,0-0.8,0-1.2,0C18.8,8.3,8.4,18.8,8.4,31.7C8.4,44.5,18.8,55,31.7,55c3.7,0,7.3-0.8,10.6-2.5c2.1-1,4.6-0.2,5.6,1.8
			c1,2.1,0.2,4.6-1.8,5.6c-4.4,2.2-9.4,3.4-14.4,3.4C14.2,63.3,0,49.1,0,31.7C0,14.2,14.2,0,31.7,0c0.5,0,1.1,0,1.6,0
			c0.8,0.1,1.6,0.1,2.4,0.2c0.8,0.1,1.6,0.2,2.4,0.4c0.8,0.2,1.6,0.3,2.3,0.6C41.3,1.5,42,1.7,42.8,2c0.7,0.3,1.5,0.6,2.2,0.9
			c0.7,0.3,1.4,0.7,2.1,1c0.7,0.4,1.4,0.8,2,1.2c0.6,0.4,1.3,0.9,1.9,1.3c0.6,0.5,1.2,1,1.8,1.5c0.6,0.5,1.2,1,1.7,1.6
			c0.4,0.4,0.7,0.7,1,1.1c0.1,0.1,0.2,0.3,0.3,0.4c0.2,0.3,0.4,0.6,0.6,1c0.2,0.5,0.4,1,0.6,1.5c0.1,0.4,0.2,0.9,0.3,1.4
			C57.2,15.5,57.2,15.9,57.2,16.4z"/>
	</g>
	<g>
		<path class="st0" d="M48.8,15.9c0-0.1,0-0.1,0-0.2l0,0.1C48.8,15.8,48.8,15.9,48.8,15.9z"/>
	</g>
</g>
</svg>
